ISO-10303-21;
HEADER;
/* Generated by software containing ST-Developer
 * from STEP Tools, Inc. (www.steptools.com) 
 */
/* OPTION: using custom renumber hook */

FILE_DESCRIPTION(
/* description */ ('STEP AP242',
'CAx-IF Rec.Pracs.---Representation and Presentation of Product Manufa
cturing Information (PMI)---4.0---2014-10-13',
'CAx-IF Rec.Pracs.---3D Tessellated Geometry---0.4---2014-09-14','2;1'),

/* implementation_level */ '2;1');

FILE_NAME(
/* name */ '682aea66a6abd200988bf890',
/* time_stamp */ '2025-05-19T08:23:03Z',
/* author */ (''),
/* organization */ (''),
/* preprocessor_version */ 'ST-DEVELOPER v20',
/* originating_system */ 'ONSHAPE BY PTC INC, 1.198',
/* authorisation */ '  ');

FILE_SCHEMA (('AP242_MANAGED_MODEL_BASED_3D_ENGINEERING_MIM_LF { 1 0 10303 442 1 1 4 }'));
ENDSEC;

DATA;
#10=CIRCLE('',#177,0.0186919153041598);
#11=CIRCLE('',#178,0.0186919153041598);
#12=CYLINDRICAL_SURFACE('',#176,0.0186919153041598);
#13=CONTEXT_DEPENDENT_SHAPE_REPRESENTATION(#19,#274);
#14=CONTEXT_DEPENDENT_SHAPE_REPRESENTATION(#20,#276);
#15=CONTEXT_DEPENDENT_SHAPE_REPRESENTATION(#21,#277);
#16=NEXT_ASSEMBLY_USAGE_OCCURRENCE('NAUO1','Part 2','Part 2',#278,#279,
'');
#17=NEXT_ASSEMBLY_USAGE_OCCURRENCE('NAUO2','Part 1','Part 1',#278,#280,
'');
#18=NEXT_ASSEMBLY_USAGE_OCCURRENCE('NAUO3','Part 1','Part 1',#278,#280,
'');
#19=(
REPRESENTATION_RELATIONSHIP(' ',' ',#166,#165)
REPRESENTATION_RELATIONSHIP_WITH_TRANSFORMATION(#22)
SHAPE_REPRESENTATION_RELATIONSHIP()
);
#20=(
REPRESENTATION_RELATIONSHIP(' ',' ',#167,#165)
REPRESENTATION_RELATIONSHIP_WITH_TRANSFORMATION(#23)
SHAPE_REPRESENTATION_RELATIONSHIP()
);
#21=(
REPRESENTATION_RELATIONSHIP(' ',' ',#167,#165)
REPRESENTATION_RELATIONSHIP_WITH_TRANSFORMATION(#24)
SHAPE_REPRESENTATION_RELATIONSHIP()
);
#22=ITEM_DEFINED_TRANSFORMATION(' ',' ',#168,#175);
#23=ITEM_DEFINED_TRANSFORMATION(' ',' ',#168,#181);
#24=ITEM_DEFINED_TRANSFORMATION(' ',' ',#168,#182);
#25=SHAPE_REPRESENTATION_RELATIONSHIP('','',#166,#27);
#26=SHAPE_REPRESENTATION_RELATIONSHIP('','',#167,#28);
#27=ADVANCED_BREP_SHAPE_REPRESENTATION('',(#160),#264);
#28=ADVANCED_BREP_SHAPE_REPRESENTATION('',(#161),#265);
#29=ORIENTED_EDGE('',*,*,#57,.F.);
#30=ORIENTED_EDGE('',*,*,#58,.F.);
#31=ORIENTED_EDGE('',*,*,#59,.T.);
#32=ORIENTED_EDGE('',*,*,#60,.T.);
#33=ORIENTED_EDGE('',*,*,#61,.T.);
#34=ORIENTED_EDGE('',*,*,#62,.F.);
#35=ORIENTED_EDGE('',*,*,#63,.F.);
#36=ORIENTED_EDGE('',*,*,#58,.T.);
#37=ORIENTED_EDGE('',*,*,#64,.T.);
#38=ORIENTED_EDGE('',*,*,#65,.F.);
#39=ORIENTED_EDGE('',*,*,#66,.F.);
#40=ORIENTED_EDGE('',*,*,#62,.T.);
#41=ORIENTED_EDGE('',*,*,#67,.F.);
#42=ORIENTED_EDGE('',*,*,#60,.F.);
#43=ORIENTED_EDGE('',*,*,#68,.T.);
#44=ORIENTED_EDGE('',*,*,#65,.T.);
#45=ORIENTED_EDGE('',*,*,#59,.F.);
#46=ORIENTED_EDGE('',*,*,#63,.T.);
#47=ORIENTED_EDGE('',*,*,#66,.T.);
#48=ORIENTED_EDGE('',*,*,#68,.F.);
#49=ORIENTED_EDGE('',*,*,#57,.T.);
#50=ORIENTED_EDGE('',*,*,#67,.T.);
#51=ORIENTED_EDGE('',*,*,#64,.F.);
#52=ORIENTED_EDGE('',*,*,#61,.F.);
#53=ORIENTED_EDGE('',*,*,#69,.T.);
#54=ORIENTED_EDGE('',*,*,#70,.F.);
#55=ORIENTED_EDGE('',*,*,#69,.F.);
#56=ORIENTED_EDGE('',*,*,#70,.T.);
#57=EDGE_CURVE('',#71,#72,#81,.T.);
#58=EDGE_CURVE('',#73,#71,#82,.T.);
#59=EDGE_CURVE('',#73,#74,#83,.T.);
#60=EDGE_CURVE('',#74,#72,#84,.T.);
#61=EDGE_CURVE('',#71,#75,#85,.T.);
#62=EDGE_CURVE('',#76,#75,#86,.T.);
#63=EDGE_CURVE('',#73,#76,#87,.T.);
#64=EDGE_CURVE('',#75,#77,#88,.T.);
#65=EDGE_CURVE('',#78,#77,#89,.T.);
#66=EDGE_CURVE('',#76,#78,#90,.T.);
#67=EDGE_CURVE('',#72,#77,#91,.T.);
#68=EDGE_CURVE('',#74,#78,#92,.T.);
#69=EDGE_CURVE('',#79,#79,#10,.T.);
#70=EDGE_CURVE('',#80,#80,#11,.T.);
#71=VERTEX_POINT('',#228);
#72=VERTEX_POINT('',#229);
#73=VERTEX_POINT('',#231);
#74=VERTEX_POINT('',#233);
#75=VERTEX_POINT('',#237);
#76=VERTEX_POINT('',#239);
#77=VERTEX_POINT('',#243);
#78=VERTEX_POINT('',#245);
#79=VERTEX_POINT('',#255);
#80=VERTEX_POINT('',#257);
#81=LINE('',#227,#93);
#82=LINE('',#230,#94);
#83=LINE('',#232,#95);
#84=LINE('',#234,#96);
#85=LINE('',#236,#97);
#86=LINE('',#238,#98);
#87=LINE('',#240,#99);
#88=LINE('',#242,#100);
#89=LINE('',#244,#101);
#90=LINE('',#246,#102);
#91=LINE('',#248,#103);
#92=LINE('',#249,#104);
#93=VECTOR('',#187,1.);
#94=VECTOR('',#188,1.);
#95=VECTOR('',#189,1.);
#96=VECTOR('',#190,1.);
#97=VECTOR('',#193,1.);
#98=VECTOR('',#194,1.);
#99=VECTOR('',#195,1.);
#100=VECTOR('',#198,1.);
#101=VECTOR('',#199,1.);
#102=VECTOR('',#200,1.);
#103=VECTOR('',#203,1.);
#104=VECTOR('',#204,1.);
#105=EDGE_LOOP('',(#29,#30,#31,#32));
#106=EDGE_LOOP('',(#33,#34,#35,#36));
#107=EDGE_LOOP('',(#37,#38,#39,#40));
#108=EDGE_LOOP('',(#41,#42,#43,#44));
#109=EDGE_LOOP('',(#45,#46,#47,#48));
#110=EDGE_LOOP('',(#49,#50,#51,#52));
#111=EDGE_LOOP('',(#53));
#112=EDGE_LOOP('',(#54));
#113=EDGE_LOOP('',(#55));
#114=EDGE_LOOP('',(#56));
#115=FACE_BOUND('',#105,.T.);
#116=FACE_BOUND('',#106,.T.);
#117=FACE_BOUND('',#107,.T.);
#118=FACE_BOUND('',#108,.T.);
#119=FACE_BOUND('',#109,.T.);
#120=FACE_BOUND('',#110,.T.);
#121=FACE_BOUND('',#111,.T.);
#122=FACE_BOUND('',#112,.T.);
#123=FACE_BOUND('',#113,.T.);
#124=FACE_BOUND('',#114,.T.);
#125=PLANE('',#169);
#126=PLANE('',#170);
#127=PLANE('',#171);
#128=PLANE('',#172);
#129=PLANE('',#173);
#130=PLANE('',#174);
#131=PLANE('',#179);
#132=PLANE('',#180);
#133=ADVANCED_FACE('',(#115),#125,.T.);
#134=ADVANCED_FACE('',(#116),#126,.F.);
#135=ADVANCED_FACE('',(#117),#127,.F.);
#136=ADVANCED_FACE('',(#118),#128,.T.);
#137=ADVANCED_FACE('',(#119),#129,.T.);
#138=ADVANCED_FACE('',(#120),#130,.F.);
#139=ADVANCED_FACE('',(#121,#122),#12,.T.);
#140=ADVANCED_FACE('',(#123),#131,.F.);
#141=ADVANCED_FACE('',(#124),#132,.T.);
#142=CLOSED_SHELL('',(#133,#134,#135,#136,#137,#138));
#143=CLOSED_SHELL('',(#139,#140,#141));
#144=STYLED_ITEM('',(#146),#160);
#145=STYLED_ITEM('',(#147),#161);
#146=PRESENTATION_STYLE_ASSIGNMENT((#148));
#147=PRESENTATION_STYLE_ASSIGNMENT((#149));
#148=SURFACE_STYLE_USAGE(.BOTH.,#150);
#149=SURFACE_STYLE_USAGE(.BOTH.,#151);
#150=SURFACE_SIDE_STYLE('',(#152));
#151=SURFACE_SIDE_STYLE('',(#153));
#152=SURFACE_STYLE_FILL_AREA(#154);
#153=SURFACE_STYLE_FILL_AREA(#155);
#154=FILL_AREA_STYLE('',(#156));
#155=FILL_AREA_STYLE('',(#157));
#156=FILL_AREA_STYLE_COLOUR('',#158);
#157=FILL_AREA_STYLE_COLOUR('',#159);
#158=COLOUR_RGB('',0.647058823529412,0.647058823529412,0.647058823529412);
#159=COLOUR_RGB('',0.615686274509804,0.811764705882353,0.929411764705882);
#160=MANIFOLD_SOLID_BREP('Part 2',#142);
#161=MANIFOLD_SOLID_BREP('Part 1',#143);
#162=SHAPE_DEFINITION_REPRESENTATION(#272,#165);
#163=SHAPE_DEFINITION_REPRESENTATION(#273,#166);
#164=SHAPE_DEFINITION_REPRESENTATION(#275,#167);
#165=SHAPE_REPRESENTATION('Assembly 1',(#168,#175,#181,#182),#263);
#166=SHAPE_REPRESENTATION('Part 2',(#168),#264);
#167=SHAPE_REPRESENTATION('Part 1',(#168),#265);
#168=AXIS2_PLACEMENT_3D('',#225,#183,#184);
#169=AXIS2_PLACEMENT_3D('',#226,#185,#186);
#170=AXIS2_PLACEMENT_3D('',#235,#191,#192);
#171=AXIS2_PLACEMENT_3D('',#241,#196,#197);
#172=AXIS2_PLACEMENT_3D('',#247,#201,#202);
#173=AXIS2_PLACEMENT_3D('',#250,#205,#206);
#174=AXIS2_PLACEMENT_3D('',#251,#207,#208);
#175=AXIS2_PLACEMENT_3D('',#252,#209,#210);
#176=AXIS2_PLACEMENT_3D('',#253,#211,#212);
#177=AXIS2_PLACEMENT_3D('',#254,#213,#214);
#178=AXIS2_PLACEMENT_3D('',#256,#215,#216);
#179=AXIS2_PLACEMENT_3D('',#258,#217,#218);
#180=AXIS2_PLACEMENT_3D('',#259,#219,#220);
#181=AXIS2_PLACEMENT_3D('',#260,#221,#222);
#182=AXIS2_PLACEMENT_3D('',#261,#223,#224);
#183=DIRECTION('',(0.,0.,1.));
#184=DIRECTION('',(1.,0.,0.));
#185=DIRECTION('',(0.,1.,0.));
#186=DIRECTION('',(0.,0.,1.));
#187=DIRECTION('',(1.,0.,0.));
#188=DIRECTION('',(0.,0.,-1.));
#189=DIRECTION('',(1.,0.,0.));
#190=DIRECTION('',(0.,0.,-1.));
#191=DIRECTION('',(1.,0.,0.));
#192=DIRECTION('',(0.,0.,-1.));
#193=DIRECTION('',(0.,-1.,0.));
#194=DIRECTION('',(0.,0.,-1.));
#195=DIRECTION('',(0.,-1.,0.));
#196=DIRECTION('',(0.,1.,0.));
#197=DIRECTION('',(0.,0.,1.));
#198=DIRECTION('',(1.,0.,0.));
#199=DIRECTION('',(0.,0.,-1.));
#200=DIRECTION('',(1.,0.,0.));
#201=DIRECTION('',(1.,0.,0.));
#202=DIRECTION('',(0.,0.,-1.));
#203=DIRECTION('',(0.,-1.,0.));
#204=DIRECTION('',(0.,-1.,0.));
#205=DIRECTION('',(0.,0.,1.));
#206=DIRECTION('',(1.,0.,0.));
#207=DIRECTION('',(0.,0.,1.));
#208=DIRECTION('',(1.,0.,0.));
#209=DIRECTION('',(0.,0.,1.));
#210=DIRECTION('',(1.,0.,0.));
#211=DIRECTION('',(0.,0.,1.));
#212=DIRECTION('',(1.,0.,0.));
#213=DIRECTION('',(0.,0.,1.));
#214=DIRECTION('',(1.,0.,0.));
#215=DIRECTION('',(0.,0.,1.));
#216=DIRECTION('',(1.,0.,0.));
#217=DIRECTION('',(0.,0.,1.));
#218=DIRECTION('',(1.,0.,0.));
#219=DIRECTION('',(0.,0.,1.));
#220=DIRECTION('',(1.,0.,0.));
#221=DIRECTION('',(0.,0.,1.));
#222=DIRECTION('',(1.,0.,0.));
#223=DIRECTION('',(0.,0.,1.));
#224=DIRECTION('',(1.,0.,0.));
#225=CARTESIAN_POINT('',(0.,0.,0.));
#226=CARTESIAN_POINT('',(0.0469941488966977,0.031236108392477,0.025));
#227=CARTESIAN_POINT('',(0.0469941488966977,0.031236108392477,0.));
#228=CARTESIAN_POINT('',(0.0366585264754746,0.031236108392477,0.));
#229=CARTESIAN_POINT('',(0.0573297713179207,0.031236108392477,0.));
#230=CARTESIAN_POINT('',(0.0366585264754746,0.031236108392477,0.025));
#231=CARTESIAN_POINT('',(0.0366585264754746,0.031236108392477,0.025));
#232=CARTESIAN_POINT('',(0.0469941488966977,0.031236108392477,0.025));
#233=CARTESIAN_POINT('',(0.0573297713179207,0.031236108392477,0.025));
#234=CARTESIAN_POINT('',(0.0573297713179207,0.031236108392477,0.025));
#235=CARTESIAN_POINT('',(0.0366585264754746,0.0181798320263624,0.025));
#236=CARTESIAN_POINT('',(0.0366585264754746,0.0181798320263624,0.));
#237=CARTESIAN_POINT('',(0.0366585264754746,0.00512355566024778,0.));
#238=CARTESIAN_POINT('',(0.0366585264754746,0.00512355566024778,0.025));
#239=CARTESIAN_POINT('',(0.0366585264754746,0.00512355566024778,0.025));
#240=CARTESIAN_POINT('',(0.0366585264754746,0.0181798320263624,0.025));
#241=CARTESIAN_POINT('',(0.0469941488966977,0.00512355566024778,0.025));
#242=CARTESIAN_POINT('',(0.0469941488966977,0.00512355566024778,0.));
#243=CARTESIAN_POINT('',(0.0573297713179207,0.00512355566024778,0.));
#244=CARTESIAN_POINT('',(0.0573297713179207,0.00512355566024778,0.025));
#245=CARTESIAN_POINT('',(0.0573297713179207,0.00512355566024778,0.025));
#246=CARTESIAN_POINT('',(0.0469941488966977,0.00512355566024778,0.025));
#247=CARTESIAN_POINT('',(0.0573297713179207,0.0181798320263624,0.025));
#248=CARTESIAN_POINT('',(0.0573297713179207,0.0181798320263624,0.));
#249=CARTESIAN_POINT('',(0.0573297713179207,0.0181798320263624,0.025));
#250=CARTESIAN_POINT('',(0.0469941488966977,0.0181798320263624,0.025));
#251=CARTESIAN_POINT('',(0.0469941488966977,0.0181798320263624,0.));
#252=CARTESIAN_POINT('',(-0.0700626616235631,-0.0283183159373872,-0.0178717085892693));
#253=CARTESIAN_POINT('',(0.,1.14454971235864E-18,-0.005));
#254=CARTESIAN_POINT('',(0.,1.14454971235864E-18,-0.005));
#255=CARTESIAN_POINT('',(0.0186919153041598,1.14454971235864E-18,-0.005));
#256=CARTESIAN_POINT('',(0.,1.14454971235864E-18,0.));
#257=CARTESIAN_POINT('',(0.0186919153041598,1.14454971235864E-18,0.));
#258=CARTESIAN_POINT('',(0.,0.,-0.005));
#259=CARTESIAN_POINT('',(0.,0.,0.));
#260=CARTESIAN_POINT('',(0.0301042516081701,0.00531964286541259,0.0041488172999608));
#261=CARTESIAN_POINT('',(0.0301042516081701,0.00531964286541259,-0.0058511827000392));
#262=MECHANICAL_DESIGN_GEOMETRIC_PRESENTATION_REPRESENTATION('',(#144,#145),
#263);
#263=(
GEOMETRIC_REPRESENTATION_CONTEXT(3)
GLOBAL_UNCERTAINTY_ASSIGNED_CONTEXT((#266))
GLOBAL_UNIT_ASSIGNED_CONTEXT((#271,#270,#269))
REPRESENTATION_CONTEXT('Assembly 1','TOP_LEVEL_ASSEMBLY_PART')
);
#264=(
GEOMETRIC_REPRESENTATION_CONTEXT(3)
GLOBAL_UNCERTAINTY_ASSIGNED_CONTEXT((#267))
GLOBAL_UNIT_ASSIGNED_CONTEXT((#271,#270,#269))
REPRESENTATION_CONTEXT('Part 2','COMPONENT_PART')
);
#265=(
GEOMETRIC_REPRESENTATION_CONTEXT(3)
GLOBAL_UNCERTAINTY_ASSIGNED_CONTEXT((#268))
GLOBAL_UNIT_ASSIGNED_CONTEXT((#271,#270,#269))
REPRESENTATION_CONTEXT('Part 1','COMPONENT_PART')
);
#266=UNCERTAINTY_MEASURE_WITH_UNIT(LENGTH_MEASURE(1.E-8),#271,
'DISTANCE_ACCURACY_VALUE','Maximum Tolerance applied to model');
#267=UNCERTAINTY_MEASURE_WITH_UNIT(LENGTH_MEASURE(1.E-8),#271,
'DISTANCE_ACCURACY_VALUE','Maximum Tolerance applied to model');
#268=UNCERTAINTY_MEASURE_WITH_UNIT(LENGTH_MEASURE(1.E-8),#271,
'DISTANCE_ACCURACY_VALUE','Maximum Tolerance applied to model');
#269=(
NAMED_UNIT(*)
SI_UNIT($,.STERADIAN.)
SOLID_ANGLE_UNIT()
);
#270=(
NAMED_UNIT(*)
PLANE_ANGLE_UNIT()
SI_UNIT($,.RADIAN.)
);
#271=(
LENGTH_UNIT()
NAMED_UNIT(*)
SI_UNIT($,.METRE.)
);
#272=PRODUCT_DEFINITION_SHAPE('','',#278);
#273=PRODUCT_DEFINITION_SHAPE('','',#279);
#274=PRODUCT_DEFINITION_SHAPE(' ','NAUO PRDDFN',#16);
#275=PRODUCT_DEFINITION_SHAPE('','',#280);
#276=PRODUCT_DEFINITION_SHAPE(' ','NAUO PRDDFN',#17);
#277=PRODUCT_DEFINITION_SHAPE(' ','NAUO PRDDFN',#18);
#278=PRODUCT_DEFINITION('','',#284,#281);
#279=PRODUCT_DEFINITION('','',#285,#282);
#280=PRODUCT_DEFINITION('','',#286,#283);
#281=PRODUCT_DEFINITION_CONTEXT('',#300,'design');
#282=PRODUCT_DEFINITION_CONTEXT('',#300,'design');
#283=PRODUCT_DEFINITION_CONTEXT('',#300,'design');
#284=PRODUCT_DEFINITION_FORMATION_WITH_SPECIFIED_SOURCE('','',#290,
 .NOT_KNOWN.);
#285=PRODUCT_DEFINITION_FORMATION_WITH_SPECIFIED_SOURCE('','',#291,
 .NOT_KNOWN.);
#286=PRODUCT_DEFINITION_FORMATION_WITH_SPECIFIED_SOURCE('','',#292,
 .NOT_KNOWN.);
#287=PRODUCT_RELATED_PRODUCT_CATEGORY('','',(#290));
#288=PRODUCT_RELATED_PRODUCT_CATEGORY('','',(#291));
#289=PRODUCT_RELATED_PRODUCT_CATEGORY('','',(#292));
#290=PRODUCT('Assembly 1','Assembly 1','Assembly 1',(#296));
#291=PRODUCT('Part 2','Part 2','Part 2',(#297));
#292=PRODUCT('Part 1','Part 1','Part 1',(#298));
#293=PRODUCT_CATEGORY('','');
#294=PRODUCT_CATEGORY('','');
#295=PRODUCT_CATEGORY('','');
#296=PRODUCT_CONTEXT('',#300,'mechanical');
#297=PRODUCT_CONTEXT('',#300,'mechanical');
#298=PRODUCT_CONTEXT('',#300,'mechanical');
#299=APPLICATION_PROTOCOL_DEFINITION('international standard',
'ap242_managed_model_based_3d_engineering',2011,#300);
#300=APPLICATION_CONTEXT('managed model based 3d engineering');
ENDSEC;
END-ISO-10303-21;
