ISO-10303-21;
HEADER;
/* Generated by software containing ST-Developer
 * from STEP Tools, Inc. (www.steptools.com) 
 */
/* OPTION: using custom renumber hook */

FILE_DESCRIPTION(
/* description */ ('STEP AP242',
'CAx-IF Rec.Pracs.---Representation and Presentation of Product Manufa
cturing Information (PMI)---4.0---2014-10-13',
'CAx-IF Rec.Pracs.---3D Tessellated Geometry---0.4---2014-09-14','2;1'),

/* implementation_level */ '2;1');

FILE_NAME(
/* name */ '68249f6b3ae20c2587166939',
/* time_stamp */ '2025-05-14T13:49:32Z',
/* author */ (''),
/* organization */ (''),
/* preprocessor_version */ 'ST-DEVELOPER v20',
/* originating_system */ 'ONSHAPE BY PTC INC, 1.197',
/* authorisation */ '  ');

FILE_SCHEMA (('AP242_MANAGED_MODEL_BASED_3D_ENGINEERING_MIM_LF { 1 0 10303 442 1 1 4 }'));
ENDSEC;

DATA;
#10=CIRCLE('',#290,0.0529906697252977);
#11=CIRCLE('',#291,0.0529906697252977);
#12=CIRCLE('',#294,0.0158783157561131);
#13=CIRCLE('',#296,0.0158783157561131);
#14=CYLINDRICAL_SURFACE('',#289,0.0529906697252977);
#15=CYLINDRICAL_SURFACE('',#295,0.0158783157561131);
#16=SHAPE_REPRESENTATION_RELATIONSHIP('','',#278,#19);
#17=SHAPE_REPRESENTATION_RELATIONSHIP('','',#279,#20);
#18=SHAPE_REPRESENTATION_RELATIONSHIP('','',#280,#21);
#19=ADVANCED_BREP_SHAPE_REPRESENTATION('',(#272),#448);
#20=ADVANCED_BREP_SHAPE_REPRESENTATION('',(#273),#449);
#21=ADVANCED_BREP_SHAPE_REPRESENTATION('',(#274),#450);
#22=ORIENTED_EDGE('',*,*,#78,.T.);
#23=ORIENTED_EDGE('',*,*,#79,.F.);
#24=ORIENTED_EDGE('',*,*,#80,.F.);
#25=ORIENTED_EDGE('',*,*,#81,.T.);
#26=ORIENTED_EDGE('',*,*,#82,.F.);
#27=ORIENTED_EDGE('',*,*,#81,.F.);
#28=ORIENTED_EDGE('',*,*,#83,.T.);
#29=ORIENTED_EDGE('',*,*,#84,.T.);
#30=ORIENTED_EDGE('',*,*,#85,.F.);
#31=ORIENTED_EDGE('',*,*,#84,.F.);
#32=ORIENTED_EDGE('',*,*,#86,.T.);
#33=ORIENTED_EDGE('',*,*,#87,.T.);
#34=ORIENTED_EDGE('',*,*,#88,.T.);
#35=ORIENTED_EDGE('',*,*,#87,.F.);
#36=ORIENTED_EDGE('',*,*,#89,.F.);
#37=ORIENTED_EDGE('',*,*,#79,.T.);
#38=ORIENTED_EDGE('',*,*,#80,.T.);
#39=ORIENTED_EDGE('',*,*,#89,.T.);
#40=ORIENTED_EDGE('',*,*,#86,.F.);
#41=ORIENTED_EDGE('',*,*,#83,.F.);
#42=ORIENTED_EDGE('',*,*,#78,.F.);
#43=ORIENTED_EDGE('',*,*,#82,.T.);
#44=ORIENTED_EDGE('',*,*,#85,.T.);
#45=ORIENTED_EDGE('',*,*,#88,.F.);
#46=ORIENTED_EDGE('',*,*,#90,.F.);
#47=ORIENTED_EDGE('',*,*,#91,.T.);
#48=ORIENTED_EDGE('',*,*,#90,.T.);
#49=ORIENTED_EDGE('',*,*,#92,.T.);
#50=ORIENTED_EDGE('',*,*,#91,.F.);
#51=ORIENTED_EDGE('',*,*,#93,.T.);
#52=ORIENTED_EDGE('',*,*,#92,.F.);
#53=ORIENTED_EDGE('',*,*,#93,.F.);
#54=ORIENTED_EDGE('',*,*,#94,.F.);
#55=ORIENTED_EDGE('',*,*,#95,.F.);
#56=ORIENTED_EDGE('',*,*,#96,.T.);
#57=ORIENTED_EDGE('',*,*,#97,.T.);
#58=ORIENTED_EDGE('',*,*,#98,.T.);
#59=ORIENTED_EDGE('',*,*,#99,.F.);
#60=ORIENTED_EDGE('',*,*,#100,.F.);
#61=ORIENTED_EDGE('',*,*,#95,.T.);
#62=ORIENTED_EDGE('',*,*,#101,.T.);
#63=ORIENTED_EDGE('',*,*,#102,.F.);
#64=ORIENTED_EDGE('',*,*,#103,.F.);
#65=ORIENTED_EDGE('',*,*,#99,.T.);
#66=ORIENTED_EDGE('',*,*,#104,.F.);
#67=ORIENTED_EDGE('',*,*,#97,.F.);
#68=ORIENTED_EDGE('',*,*,#105,.T.);
#69=ORIENTED_EDGE('',*,*,#102,.T.);
#70=ORIENTED_EDGE('',*,*,#96,.F.);
#71=ORIENTED_EDGE('',*,*,#100,.T.);
#72=ORIENTED_EDGE('',*,*,#103,.T.);
#73=ORIENTED_EDGE('',*,*,#105,.F.);
#74=ORIENTED_EDGE('',*,*,#94,.T.);
#75=ORIENTED_EDGE('',*,*,#104,.T.);
#76=ORIENTED_EDGE('',*,*,#101,.F.);
#77=ORIENTED_EDGE('',*,*,#98,.F.);
#78=EDGE_CURVE('',#106,#107,#126,.T.);
#79=EDGE_CURVE('',#108,#107,#127,.T.);
#80=EDGE_CURVE('',#109,#108,#128,.T.);
#81=EDGE_CURVE('',#109,#106,#129,.T.);
#82=EDGE_CURVE('',#106,#110,#130,.T.);
#83=EDGE_CURVE('',#109,#111,#131,.T.);
#84=EDGE_CURVE('',#111,#110,#132,.T.);
#85=EDGE_CURVE('',#110,#112,#133,.T.);
#86=EDGE_CURVE('',#111,#113,#134,.T.);
#87=EDGE_CURVE('',#113,#112,#135,.T.);
#88=EDGE_CURVE('',#107,#112,#136,.T.);
#89=EDGE_CURVE('',#108,#113,#137,.T.);
#90=EDGE_CURVE('',#114,#114,#10,.T.);
#91=EDGE_CURVE('',#115,#115,#11,.T.);
#92=EDGE_CURVE('',#116,#116,#12,.T.);
#93=EDGE_CURVE('',#117,#117,#13,.T.);
#94=EDGE_CURVE('',#118,#119,#138,.T.);
#95=EDGE_CURVE('',#120,#118,#139,.T.);
#96=EDGE_CURVE('',#120,#121,#140,.T.);
#97=EDGE_CURVE('',#121,#119,#141,.T.);
#98=EDGE_CURVE('',#118,#122,#142,.T.);
#99=EDGE_CURVE('',#123,#122,#143,.T.);
#100=EDGE_CURVE('',#120,#123,#144,.T.);
#101=EDGE_CURVE('',#122,#124,#145,.T.);
#102=EDGE_CURVE('',#125,#124,#146,.T.);
#103=EDGE_CURVE('',#123,#125,#147,.T.);
#104=EDGE_CURVE('',#119,#124,#148,.T.);
#105=EDGE_CURVE('',#121,#125,#149,.T.);
#106=VERTEX_POINT('',#380);
#107=VERTEX_POINT('',#381);
#108=VERTEX_POINT('',#383);
#109=VERTEX_POINT('',#385);
#110=VERTEX_POINT('',#389);
#111=VERTEX_POINT('',#391);
#112=VERTEX_POINT('',#395);
#113=VERTEX_POINT('',#397);
#114=VERTEX_POINT('',#407);
#115=VERTEX_POINT('',#409);
#116=VERTEX_POINT('',#413);
#117=VERTEX_POINT('',#416);
#118=VERTEX_POINT('',#421);
#119=VERTEX_POINT('',#422);
#120=VERTEX_POINT('',#424);
#121=VERTEX_POINT('',#426);
#122=VERTEX_POINT('',#430);
#123=VERTEX_POINT('',#432);
#124=VERTEX_POINT('',#436);
#125=VERTEX_POINT('',#438);
#126=LINE('',#379,#150);
#127=LINE('',#382,#151);
#128=LINE('',#384,#152);
#129=LINE('',#386,#153);
#130=LINE('',#388,#154);
#131=LINE('',#390,#155);
#132=LINE('',#392,#156);
#133=LINE('',#394,#157);
#134=LINE('',#396,#158);
#135=LINE('',#398,#159);
#136=LINE('',#400,#160);
#137=LINE('',#401,#161);
#138=LINE('',#420,#162);
#139=LINE('',#423,#163);
#140=LINE('',#425,#164);
#141=LINE('',#427,#165);
#142=LINE('',#429,#166);
#143=LINE('',#431,#167);
#144=LINE('',#433,#168);
#145=LINE('',#435,#169);
#146=LINE('',#437,#170);
#147=LINE('',#439,#171);
#148=LINE('',#441,#172);
#149=LINE('',#442,#173);
#150=VECTOR('',#309,1.);
#151=VECTOR('',#310,1.);
#152=VECTOR('',#311,1.);
#153=VECTOR('',#312,1.);
#154=VECTOR('',#315,1.);
#155=VECTOR('',#316,1.);
#156=VECTOR('',#317,1.);
#157=VECTOR('',#320,1.);
#158=VECTOR('',#321,1.);
#159=VECTOR('',#322,1.);
#160=VECTOR('',#325,1.);
#161=VECTOR('',#326,1.);
#162=VECTOR('',#355,1.);
#163=VECTOR('',#356,1.);
#164=VECTOR('',#357,1.);
#165=VECTOR('',#358,1.);
#166=VECTOR('',#361,1.);
#167=VECTOR('',#362,1.);
#168=VECTOR('',#363,1.);
#169=VECTOR('',#366,1.);
#170=VECTOR('',#367,1.);
#171=VECTOR('',#368,1.);
#172=VECTOR('',#371,1.);
#173=VECTOR('',#372,1.);
#174=EDGE_LOOP('',(#22,#23,#24,#25));
#175=EDGE_LOOP('',(#26,#27,#28,#29));
#176=EDGE_LOOP('',(#30,#31,#32,#33));
#177=EDGE_LOOP('',(#34,#35,#36,#37));
#178=EDGE_LOOP('',(#38,#39,#40,#41));
#179=EDGE_LOOP('',(#42,#43,#44,#45));
#180=EDGE_LOOP('',(#46));
#181=EDGE_LOOP('',(#47));
#182=EDGE_LOOP('',(#48));
#183=EDGE_LOOP('',(#49));
#184=EDGE_LOOP('',(#50));
#185=EDGE_LOOP('',(#51));
#186=EDGE_LOOP('',(#52));
#187=EDGE_LOOP('',(#53));
#188=EDGE_LOOP('',(#54,#55,#56,#57));
#189=EDGE_LOOP('',(#58,#59,#60,#61));
#190=EDGE_LOOP('',(#62,#63,#64,#65));
#191=EDGE_LOOP('',(#66,#67,#68,#69));
#192=EDGE_LOOP('',(#70,#71,#72,#73));
#193=EDGE_LOOP('',(#74,#75,#76,#77));
#194=FACE_BOUND('',#174,.T.);
#195=FACE_BOUND('',#175,.T.);
#196=FACE_BOUND('',#176,.T.);
#197=FACE_BOUND('',#177,.T.);
#198=FACE_BOUND('',#178,.T.);
#199=FACE_BOUND('',#179,.T.);
#200=FACE_BOUND('',#180,.T.);
#201=FACE_BOUND('',#181,.T.);
#202=FACE_BOUND('',#182,.T.);
#203=FACE_BOUND('',#183,.T.);
#204=FACE_BOUND('',#184,.T.);
#205=FACE_BOUND('',#185,.T.);
#206=FACE_BOUND('',#186,.T.);
#207=FACE_BOUND('',#187,.T.);
#208=FACE_BOUND('',#188,.T.);
#209=FACE_BOUND('',#189,.T.);
#210=FACE_BOUND('',#190,.T.);
#211=FACE_BOUND('',#191,.T.);
#212=FACE_BOUND('',#192,.T.);
#213=FACE_BOUND('',#193,.T.);
#214=PLANE('',#282);
#215=PLANE('',#283);
#216=PLANE('',#284);
#217=PLANE('',#285);
#218=PLANE('',#286);
#219=PLANE('',#287);
#220=PLANE('',#292);
#221=PLANE('',#293);
#222=PLANE('',#297);
#223=PLANE('',#299);
#224=PLANE('',#300);
#225=PLANE('',#301);
#226=PLANE('',#302);
#227=PLANE('',#303);
#228=PLANE('',#304);
#229=ADVANCED_FACE('',(#194),#214,.T.);
#230=ADVANCED_FACE('',(#195),#215,.F.);
#231=ADVANCED_FACE('',(#196),#216,.F.);
#232=ADVANCED_FACE('',(#197),#217,.T.);
#233=ADVANCED_FACE('',(#198),#218,.T.);
#234=ADVANCED_FACE('',(#199),#219,.F.);
#235=ADVANCED_FACE('',(#200,#201),#14,.T.);
#236=ADVANCED_FACE('',(#202),#220,.T.);
#237=ADVANCED_FACE('',(#203,#204),#221,.F.);
#238=ADVANCED_FACE('',(#205,#206),#15,.T.);
#239=ADVANCED_FACE('',(#207),#222,.F.);
#240=ADVANCED_FACE('',(#208),#223,.T.);
#241=ADVANCED_FACE('',(#209),#224,.F.);
#242=ADVANCED_FACE('',(#210),#225,.F.);
#243=ADVANCED_FACE('',(#211),#226,.T.);
#244=ADVANCED_FACE('',(#212),#227,.T.);
#245=ADVANCED_FACE('',(#213),#228,.F.);
#246=CLOSED_SHELL('',(#229,#230,#231,#232,#233,#234));
#247=CLOSED_SHELL('',(#235,#236,#237,#238,#239));
#248=CLOSED_SHELL('',(#240,#241,#242,#243,#244,#245));
#249=STYLED_ITEM('',(#252),#272);
#250=STYLED_ITEM('',(#253),#273);
#251=STYLED_ITEM('',(#254),#274);
#252=PRESENTATION_STYLE_ASSIGNMENT((#255));
#253=PRESENTATION_STYLE_ASSIGNMENT((#256));
#254=PRESENTATION_STYLE_ASSIGNMENT((#257));
#255=SURFACE_STYLE_USAGE(.BOTH.,#258);
#256=SURFACE_STYLE_USAGE(.BOTH.,#259);
#257=SURFACE_STYLE_USAGE(.BOTH.,#260);
#258=SURFACE_SIDE_STYLE('',(#261));
#259=SURFACE_SIDE_STYLE('',(#262));
#260=SURFACE_SIDE_STYLE('',(#263));
#261=SURFACE_STYLE_FILL_AREA(#264);
#262=SURFACE_STYLE_FILL_AREA(#265);
#263=SURFACE_STYLE_FILL_AREA(#266);
#264=FILL_AREA_STYLE('',(#267));
#265=FILL_AREA_STYLE('',(#268));
#266=FILL_AREA_STYLE('',(#269));
#267=FILL_AREA_STYLE_COLOUR('',#270);
#268=FILL_AREA_STYLE_COLOUR('',#271);
#269=FILL_AREA_STYLE_COLOUR('',#270);
#270=COLOUR_RGB('',0.647058823529412,0.647058823529412,0.647058823529412);
#271=COLOUR_RGB('',0.615686274509804,0.811764705882353,0.929411764705882);
#272=MANIFOLD_SOLID_BREP('crystal_LYSO_no_test_1',#246);
#273=MANIFOLD_SOLID_BREP('p1_Aluminum',#247);
#274=MANIFOLD_SOLID_BREP('crystal_LYSO_no_test_0',#248);
#275=SHAPE_DEFINITION_REPRESENTATION(#463,#278);
#276=SHAPE_DEFINITION_REPRESENTATION(#464,#279);
#277=SHAPE_DEFINITION_REPRESENTATION(#465,#280);
#278=SHAPE_REPRESENTATION('crystal_LYSO_no_test_1',(#281),#448);
#279=SHAPE_REPRESENTATION('p1_Aluminum',(#288),#449);
#280=SHAPE_REPRESENTATION('crystal_LYSO_no_test_0',(#298),#450);
#281=AXIS2_PLACEMENT_3D('',#377,#305,#306);
#282=AXIS2_PLACEMENT_3D('',#378,#307,#308);
#283=AXIS2_PLACEMENT_3D('',#387,#313,#314);
#284=AXIS2_PLACEMENT_3D('',#393,#318,#319);
#285=AXIS2_PLACEMENT_3D('',#399,#323,#324);
#286=AXIS2_PLACEMENT_3D('',#402,#327,#328);
#287=AXIS2_PLACEMENT_3D('',#403,#329,#330);
#288=AXIS2_PLACEMENT_3D('',#404,#331,#332);
#289=AXIS2_PLACEMENT_3D('',#405,#333,#334);
#290=AXIS2_PLACEMENT_3D('',#406,#335,#336);
#291=AXIS2_PLACEMENT_3D('',#408,#337,#338);
#292=AXIS2_PLACEMENT_3D('',#410,#339,#340);
#293=AXIS2_PLACEMENT_3D('',#411,#341,#342);
#294=AXIS2_PLACEMENT_3D('',#412,#343,#344);
#295=AXIS2_PLACEMENT_3D('',#414,#345,#346);
#296=AXIS2_PLACEMENT_3D('',#415,#347,#348);
#297=AXIS2_PLACEMENT_3D('',#417,#349,#350);
#298=AXIS2_PLACEMENT_3D('',#418,#351,#352);
#299=AXIS2_PLACEMENT_3D('',#419,#353,#354);
#300=AXIS2_PLACEMENT_3D('',#428,#359,#360);
#301=AXIS2_PLACEMENT_3D('',#434,#364,#365);
#302=AXIS2_PLACEMENT_3D('',#440,#369,#370);
#303=AXIS2_PLACEMENT_3D('',#443,#373,#374);
#304=AXIS2_PLACEMENT_3D('',#444,#375,#376);
#305=DIRECTION('',(0.,0.,1.));
#306=DIRECTION('',(1.,0.,0.));
#307=DIRECTION('',(1.,0.,0.));
#308=DIRECTION('',(0.,1.,0.));
#309=DIRECTION('',(0.,1.,0.));
#310=DIRECTION('',(0.,0.,-1.));
#311=DIRECTION('',(0.,1.,0.));
#312=DIRECTION('',(0.,0.,-1.));
#313=DIRECTION('',(0.,1.,0.));
#314=DIRECTION('',(-1.,0.,0.));
#315=DIRECTION('',(-1.,0.,0.));
#316=DIRECTION('',(-1.,0.,0.));
#317=DIRECTION('',(0.,0.,-1.));
#318=DIRECTION('',(1.,0.,0.));
#319=DIRECTION('',(0.,1.,0.));
#320=DIRECTION('',(0.,1.,0.));
#321=DIRECTION('',(0.,1.,0.));
#322=DIRECTION('',(0.,0.,-1.));
#323=DIRECTION('',(0.,1.,0.));
#324=DIRECTION('',(-1.,0.,0.));
#325=DIRECTION('',(-1.,0.,0.));
#326=DIRECTION('',(-1.,0.,0.));
#327=DIRECTION('',(0.,0.,1.));
#328=DIRECTION('',(-1.,0.,0.));
#329=DIRECTION('',(0.,0.,1.));
#330=DIRECTION('',(-1.,0.,0.));
#331=DIRECTION('',(0.,0.,1.));
#332=DIRECTION('',(1.,0.,0.));
#333=DIRECTION('',(0.,-1.,0.));
#334=DIRECTION('',(-1.,0.,0.));
#335=DIRECTION('',(0.,1.,0.));
#336=DIRECTION('',(1.,0.,0.));
#337=DIRECTION('',(0.,1.,0.));
#338=DIRECTION('',(1.,0.,0.));
#339=DIRECTION('',(0.,1.,0.));
#340=DIRECTION('',(1.,0.,0.));
#341=DIRECTION('',(0.,1.,0.));
#342=DIRECTION('',(1.,0.,0.));
#343=DIRECTION('',(0.,1.,0.));
#344=DIRECTION('',(1.,0.,0.));
#345=DIRECTION('',(0.,1.,0.));
#346=DIRECTION('',(1.,0.,0.));
#347=DIRECTION('',(0.,1.,0.));
#348=DIRECTION('',(1.,0.,0.));
#349=DIRECTION('',(0.,1.,0.));
#350=DIRECTION('',(1.,0.,0.));
#351=DIRECTION('',(0.,0.,1.));
#352=DIRECTION('',(1.,0.,0.));
#353=DIRECTION('',(-1.,0.,0.));
#354=DIRECTION('',(0.,1.,0.));
#355=DIRECTION('',(0.,1.,0.));
#356=DIRECTION('',(0.,0.,-1.));
#357=DIRECTION('',(0.,1.,0.));
#358=DIRECTION('',(0.,0.,-1.));
#359=DIRECTION('',(0.,1.,0.));
#360=DIRECTION('',(1.,0.,0.));
#361=DIRECTION('',(1.,0.,0.));
#362=DIRECTION('',(0.,0.,-1.));
#363=DIRECTION('',(1.,0.,0.));
#364=DIRECTION('',(-1.,0.,0.));
#365=DIRECTION('',(0.,1.,0.));
#366=DIRECTION('',(0.,1.,0.));
#367=DIRECTION('',(0.,0.,-1.));
#368=DIRECTION('',(0.,1.,0.));
#369=DIRECTION('',(0.,1.,0.));
#370=DIRECTION('',(1.,0.,0.));
#371=DIRECTION('',(1.,0.,0.));
#372=DIRECTION('',(1.,0.,0.));
#373=DIRECTION('',(0.,0.,1.));
#374=DIRECTION('',(1.,0.,0.));
#375=DIRECTION('',(0.,0.,1.));
#376=DIRECTION('',(1.,0.,0.));
#377=CARTESIAN_POINT('',(0.,0.,0.));
#378=CARTESIAN_POINT('',(-0.0331069773418557,-0.044153034670366,0.025));
#379=CARTESIAN_POINT('',(-0.0331069773418557,-0.044153034670366,0.));
#380=CARTESIAN_POINT('',(-0.0331069773418557,-0.0627572758511386,0.));
#381=CARTESIAN_POINT('',(-0.0331069773418557,-0.0255487934895933,0.));
#382=CARTESIAN_POINT('',(-0.0331069773418557,-0.0255487934895933,0.025));
#383=CARTESIAN_POINT('',(-0.0331069773418557,-0.0255487934895933,0.025));
#384=CARTESIAN_POINT('',(-0.0331069773418557,-0.044153034670366,0.025));
#385=CARTESIAN_POINT('',(-0.0331069773418557,-0.0627572758511386,0.025));
#386=CARTESIAN_POINT('',(-0.0331069773418557,-0.0627572758511386,0.025));
#387=CARTESIAN_POINT('',(-0.0465322518028245,-0.0627572758511386,0.025));
#388=CARTESIAN_POINT('',(-0.0465322518028245,-0.0627572758511386,0.));
#389=CARTESIAN_POINT('',(-0.0599575262637933,-0.0627572758511386,0.));
#390=CARTESIAN_POINT('',(-0.0465322518028245,-0.0627572758511386,0.025));
#391=CARTESIAN_POINT('',(-0.0599575262637933,-0.0627572758511386,0.025));
#392=CARTESIAN_POINT('',(-0.0599575262637933,-0.0627572758511386,0.025));
#393=CARTESIAN_POINT('',(-0.0599575262637933,-0.044153034670366,0.025));
#394=CARTESIAN_POINT('',(-0.0599575262637933,-0.044153034670366,0.));
#395=CARTESIAN_POINT('',(-0.0599575262637933,-0.0255487934895933,0.));
#396=CARTESIAN_POINT('',(-0.0599575262637933,-0.044153034670366,0.025));
#397=CARTESIAN_POINT('',(-0.0599575262637933,-0.0255487934895933,0.025));
#398=CARTESIAN_POINT('',(-0.0599575262637933,-0.0255487934895933,0.025));
#399=CARTESIAN_POINT('',(-0.0465322518028245,-0.0255487934895933,0.025));
#400=CARTESIAN_POINT('',(-0.0465322518028245,-0.0255487934895933,0.));
#401=CARTESIAN_POINT('',(-0.0465322518028245,-0.0255487934895933,0.025));
#402=CARTESIAN_POINT('',(-0.0465322518028245,-0.044153034670366,0.025));
#403=CARTESIAN_POINT('',(-0.0465322518028245,-0.044153034670366,0.));
#404=CARTESIAN_POINT('',(0.,0.,0.));
#405=CARTESIAN_POINT('',(0.,0.086,-3.24474270318802E-18));
#406=CARTESIAN_POINT('',(0.,0.086,-3.24474270318802E-18));
#407=CARTESIAN_POINT('',(0.0529906697252977,0.086,-3.24474270318802E-18));
#408=CARTESIAN_POINT('',(0.,0.,-3.24474270318802E-18));
#409=CARTESIAN_POINT('',(0.0529906697252977,0.,-3.24474270318802E-18));
#410=CARTESIAN_POINT('',(0.,0.086,0.));
#411=CARTESIAN_POINT('',(0.,0.,0.));
#412=CARTESIAN_POINT('',(0.,0.,-9.72266428328744E-19));
#413=CARTESIAN_POINT('',(0.0158783157561131,0.,-9.72266428328744E-19));
#414=CARTESIAN_POINT('',(0.,-0.0589,-9.72266428328744E-19));
#415=CARTESIAN_POINT('',(0.,-0.0589,-9.72266428328744E-19));
#416=CARTESIAN_POINT('',(0.0158783157561131,-0.0589,-9.72266428328744E-19));
#417=CARTESIAN_POINT('',(0.,-0.0589,0.));
#418=CARTESIAN_POINT('',(0.,0.,0.));
#419=CARTESIAN_POINT('',(0.0331069773418557,-0.044153034670366,0.025));
#420=CARTESIAN_POINT('',(0.0331069773418557,-0.044153034670366,0.));
#421=CARTESIAN_POINT('',(0.0331069773418557,-0.0627572758511386,0.));
#422=CARTESIAN_POINT('',(0.0331069773418557,-0.0255487934895933,0.));
#423=CARTESIAN_POINT('',(0.0331069773418557,-0.0627572758511386,0.025));
#424=CARTESIAN_POINT('',(0.0331069773418557,-0.0627572758511386,0.025));
#425=CARTESIAN_POINT('',(0.0331069773418557,-0.044153034670366,0.025));
#426=CARTESIAN_POINT('',(0.0331069773418557,-0.0255487934895933,0.025));
#427=CARTESIAN_POINT('',(0.0331069773418557,-0.0255487934895933,0.025));
#428=CARTESIAN_POINT('',(0.0465322518028245,-0.0627572758511386,0.025));
#429=CARTESIAN_POINT('',(0.0465322518028245,-0.0627572758511386,0.));
#430=CARTESIAN_POINT('',(0.0599575262637933,-0.0627572758511386,0.));
#431=CARTESIAN_POINT('',(0.0599575262637933,-0.0627572758511386,0.025));
#432=CARTESIAN_POINT('',(0.0599575262637933,-0.0627572758511386,0.025));
#433=CARTESIAN_POINT('',(0.0465322518028245,-0.0627572758511386,0.025));
#434=CARTESIAN_POINT('',(0.0599575262637933,-0.044153034670366,0.025));
#435=CARTESIAN_POINT('',(0.0599575262637933,-0.044153034670366,0.));
#436=CARTESIAN_POINT('',(0.0599575262637933,-0.0255487934895933,0.));
#437=CARTESIAN_POINT('',(0.0599575262637933,-0.0255487934895933,0.025));
#438=CARTESIAN_POINT('',(0.0599575262637933,-0.0255487934895933,0.025));
#439=CARTESIAN_POINT('',(0.0599575262637933,-0.044153034670366,0.025));
#440=CARTESIAN_POINT('',(0.0465322518028245,-0.0255487934895933,0.025));
#441=CARTESIAN_POINT('',(0.0465322518028245,-0.0255487934895933,0.));
#442=CARTESIAN_POINT('',(0.0465322518028245,-0.0255487934895933,0.025));
#443=CARTESIAN_POINT('',(0.0465322518028245,-0.044153034670366,0.025));
#444=CARTESIAN_POINT('',(0.0465322518028245,-0.044153034670366,0.));
#445=MECHANICAL_DESIGN_GEOMETRIC_PRESENTATION_REPRESENTATION('',(#249),
#448);
#446=MECHANICAL_DESIGN_GEOMETRIC_PRESENTATION_REPRESENTATION('',(#250),
#449);
#447=MECHANICAL_DESIGN_GEOMETRIC_PRESENTATION_REPRESENTATION('',(#251),
#450);
#448=(
GEOMETRIC_REPRESENTATION_CONTEXT(3)
GLOBAL_UNCERTAINTY_ASSIGNED_CONTEXT((#451))
GLOBAL_UNIT_ASSIGNED_CONTEXT((#460,#457,#454))
REPRESENTATION_CONTEXT('crystal_LYSO_no_test_1',
'TOP_LEVEL_ASSEMBLY_PART')
);
#449=(
GEOMETRIC_REPRESENTATION_CONTEXT(3)
GLOBAL_UNCERTAINTY_ASSIGNED_CONTEXT((#452))
GLOBAL_UNIT_ASSIGNED_CONTEXT((#461,#458,#455))
REPRESENTATION_CONTEXT('p1_Aluminum','TOP_LEVEL_ASSEMBLY_PART')
);
#450=(
GEOMETRIC_REPRESENTATION_CONTEXT(3)
GLOBAL_UNCERTAINTY_ASSIGNED_CONTEXT((#453))
GLOBAL_UNIT_ASSIGNED_CONTEXT((#462,#459,#456))
REPRESENTATION_CONTEXT('crystal_LYSO_no_test_0',
'TOP_LEVEL_ASSEMBLY_PART')
);
#451=UNCERTAINTY_MEASURE_WITH_UNIT(LENGTH_MEASURE(1.E-8),#460,
'DISTANCE_ACCURACY_VALUE','Maximum Tolerance applied to model');
#452=UNCERTAINTY_MEASURE_WITH_UNIT(LENGTH_MEASURE(1.E-8),#461,
'DISTANCE_ACCURACY_VALUE','Maximum Tolerance applied to model');
#453=UNCERTAINTY_MEASURE_WITH_UNIT(LENGTH_MEASURE(1.E-8),#462,
'DISTANCE_ACCURACY_VALUE','Maximum Tolerance applied to model');
#454=(
NAMED_UNIT(*)
SI_UNIT($,.STERADIAN.)
SOLID_ANGLE_UNIT()
);
#455=(
NAMED_UNIT(*)
SI_UNIT($,.STERADIAN.)
SOLID_ANGLE_UNIT()
);
#456=(
NAMED_UNIT(*)
SI_UNIT($,.STERADIAN.)
SOLID_ANGLE_UNIT()
);
#457=(
NAMED_UNIT(*)
PLANE_ANGLE_UNIT()
SI_UNIT($,.RADIAN.)
);
#458=(
NAMED_UNIT(*)
PLANE_ANGLE_UNIT()
SI_UNIT($,.RADIAN.)
);
#459=(
NAMED_UNIT(*)
PLANE_ANGLE_UNIT()
SI_UNIT($,.RADIAN.)
);
#460=(
LENGTH_UNIT()
NAMED_UNIT(*)
SI_UNIT($,.METRE.)
);
#461=(
LENGTH_UNIT()
NAMED_UNIT(*)
SI_UNIT($,.METRE.)
);
#462=(
LENGTH_UNIT()
NAMED_UNIT(*)
SI_UNIT($,.METRE.)
);
#463=PRODUCT_DEFINITION_SHAPE('','',#466);
#464=PRODUCT_DEFINITION_SHAPE('','',#467);
#465=PRODUCT_DEFINITION_SHAPE('','',#468);
#466=PRODUCT_DEFINITION('','',#472,#469);
#467=PRODUCT_DEFINITION('','',#473,#470);
#468=PRODUCT_DEFINITION('','',#474,#471);
#469=PRODUCT_DEFINITION_CONTEXT('',#490,'design');
#470=PRODUCT_DEFINITION_CONTEXT('',#491,'design');
#471=PRODUCT_DEFINITION_CONTEXT('',#492,'design');
#472=PRODUCT_DEFINITION_FORMATION_WITH_SPECIFIED_SOURCE('','',#478,
 .NOT_KNOWN.);
#473=PRODUCT_DEFINITION_FORMATION_WITH_SPECIFIED_SOURCE('','',#479,
 .NOT_KNOWN.);
#474=PRODUCT_DEFINITION_FORMATION_WITH_SPECIFIED_SOURCE('','',#480,
 .NOT_KNOWN.);
#475=PRODUCT_RELATED_PRODUCT_CATEGORY('','',(#478));
#476=PRODUCT_RELATED_PRODUCT_CATEGORY('','',(#479));
#477=PRODUCT_RELATED_PRODUCT_CATEGORY('','',(#480));
#478=PRODUCT('crystal_LYSO_no_test_1','crystal_LYSO_no_test_1',
'crystal_LYSO_no_test_1',(#484));
#479=PRODUCT('p1_Aluminum','p1_Aluminum','p1_Aluminum',(#485));
#480=PRODUCT('crystal_LYSO_no_test_0','crystal_LYSO_no_test_0',
'crystal_LYSO_no_test_0',(#486));
#481=PRODUCT_CATEGORY('','');
#482=PRODUCT_CATEGORY('','');
#483=PRODUCT_CATEGORY('','');
#484=PRODUCT_CONTEXT('',#490,'mechanical');
#485=PRODUCT_CONTEXT('',#491,'mechanical');
#486=PRODUCT_CONTEXT('',#492,'mechanical');
#487=APPLICATION_PROTOCOL_DEFINITION('international standard',
'ap242_managed_model_based_3d_engineering',2011,#490);
#488=APPLICATION_PROTOCOL_DEFINITION('international standard',
'ap242_managed_model_based_3d_engineering',2011,#491);
#489=APPLICATION_PROTOCOL_DEFINITION('international standard',
'ap242_managed_model_based_3d_engineering',2011,#492);
#490=APPLICATION_CONTEXT('managed model based 3d engineering');
#491=APPLICATION_CONTEXT('managed model based 3d engineering');
#492=APPLICATION_CONTEXT('managed model based 3d engineering');
ENDSEC;
END-ISO-10303-21;
